# xmcd
#
# Track frame offsets: 
#        150
#        16782
#        34368
#        62924
#        90149
#        105500
#        121669
#        149396
#
# Disc length: 2428 seconds
#
# Revision: 1
# Processed by: cddbd v1.5.2PL0 Copyright (c) Steve Scherf et al.
# Submitted via: ExactAudioCopy v0.95b4
#
DISCID=5b097a08
DTITLE=Madison Park - I'm Listening
DYEAR=2006
DGENRE=Electronic
TTITLE0=I'm Listening (Radio Edit)
TTITLE1=I'm Listening (Deep Electro Mix)
TTITLE2=I'm Listening (Lenny B's Extended Club Mix)
TTITLE3=I'm Listening (The Groove Oholics Deep Dub)
TTITLE4=I'm Listening (The Rock n' Mix)
TTITLE5=I'm Listening (Piano Mix)
TTITLE6=I'm Listening (Original Mix)
TTITLE7=Video
EXTD=
EXTT0=
EXTT1=
EXTT2=
EXTT3=
EXTT4=
EXTT5=
EXTT6=
EXTT7=
PLAYORDER=
